<?xml version='1.0' encoding='utf-8'?>
<svg xmlns="http://www.w3.org/2000/svg" width="91.44mm" height="91.44mm" version="1.1" style="shape-rendering:geometricPrecision; text-rendering:geometricPrecision; image-rendering:optimizeQuality; fill-rule:evenodd; clip-rule:evenodd" viewBox="0 0 184.23 184.23"> <defs> <style type="text/css">  .fil0 {fill:#F0F0F0} .fil1 {fill:#011627;fill-rule:nonzero}  </style> </defs> <g id="Camada_x0020_1"> <metadata id="CorelCorpID_0Corel-Layer"/> <polygon class="fil0" points="-0,0 184.23,0 184.23,184.23 -0,184.23 "/> <path class="fil1" d="M68.24 50.11l47.76 0c4.99,0 9.52,2.04 12.8,5.32 3.28,3.28 5.32,7.81 5.32,12.8l0 47.76c0,4.99 -2.04,9.52 -5.32,12.8 -3.28,3.28 -7.82,5.32 -12.8,5.32l-47.76 0c-4.99,0 -9.52,-2.04 -12.8,-5.32 -3.28,-3.28 -5.32,-7.82 -5.32,-12.8l0 -47.76c0,-4.99 2.04,-9.52 5.32,-12.8 3.28,-3.28 7.82,-5.32 12.8,-5.32zm49.43 11.64c1.33,0 2.53,0.53 3.4,1.41 0.87,0.87 1.41,2.07 1.41,3.4 0,1.32 -0.54,2.52 -1.41,3.39 -0.04,0.04 -0.08,0.07 -0.12,0.11 -0.86,0.81 -2.01,1.3 -3.28,1.3 -1.32,0 -2.52,-0.53 -3.39,-1.41l-0.01 -0.01c-0.87,-0.87 -1.41,-2.06 -1.41,-3.38 0,-1.32 0.54,-2.52 1.41,-3.39l0 -0.01 -0 0c0.87,-0.87 2.07,-1.41 3.4,-1.41zm0.98 3.82c-0.25,-0.25 -0.6,-0.41 -0.98,-0.41 -0.38,0 -0.73,0.16 -0.98,0.41l-0 0c-0.25,0.25 -0.4,0.6 -0.4,0.99 0,0.38 0.15,0.73 0.4,0.98 0.25,0.26 0.6,0.41 0.99,0.41 0.36,0 0.68,-0.13 0.93,-0.35l0.06 -0.06c0.25,-0.25 0.41,-0.6 0.41,-0.98 0,-0.39 -0.16,-0.73 -0.41,-0.99zm-26.53 3.16c6.46,0 12.3,2.62 16.53,6.85 4.23,4.23 6.85,10.08 6.85,16.53 0,6.46 -2.62,12.3 -6.85,16.53 -4.23,4.23 -10.08,6.85 -16.53,6.85 -6.46,0 -12.3,-2.62 -16.53,-6.85 -4.23,-4.23 -6.85,-10.08 -6.85,-16.53 0,-6.46 2.62,-12.3 6.85,-16.53 4.23,-4.23 10.08,-6.85 16.53,-6.85zm14.12 9.26c-3.61,-3.61 -8.61,-5.85 -14.12,-5.85 -5.51,0 -10.51,2.23 -14.12,5.85 -3.61,3.61 -5.85,8.61 -5.85,14.12 0,5.51 2.23,10.51 5.85,14.12 3.61,3.61 8.61,5.85 14.12,5.85 5.51,0 10.51,-2.24 14.12,-5.85 3.61,-3.61 5.85,-8.61 5.85,-14.12 0,-5.51 -2.24,-10.51 -5.85,-14.12zm9.76 -24.47l-47.76 0c-4.04,0 -7.72,1.66 -10.39,4.32 -2.67,2.67 -4.32,6.35 -4.32,10.39l0 47.76c0,4.04 1.66,7.72 4.32,10.39 2.67,2.67 6.35,4.32 10.39,4.32l47.76 0c4.04,0 7.72,-1.66 10.39,-4.32 2.67,-2.67 4.32,-6.35 4.32,-10.39l0 -47.76c0,-4.04 -1.66,-7.73 -4.32,-10.39 -2.67,-2.67 -6.35,-4.32 -10.39,-4.32z"/> </g> </svg>